<svg width="99" height="14" viewBox="0 0 99 14" fill="none" xmlns="http://www.w3.org/2000/svg">
<g id="Group 52">
<path id="Star 1" d="M6.77457 0.51557C6.99666 -0.171858 7.96368 -0.171856 8.18577 0.515572L9.39573 4.26064C9.49505 4.56807 9.77991 4.77621 10.1013 4.77621H14.0168C14.7355 4.77621 15.0343 5.70114 14.4529 6.126L11.2852 8.44058C11.0252 8.63058 10.9164 8.96736 11.0157 9.27479L12.2256 13.0199C12.4477 13.7073 11.6654 14.2789 11.084 13.8541L7.91626 11.5395C7.65623 11.3495 7.30412 11.3495 7.04409 11.5395L3.87639 13.8541C3.29494 14.2789 2.51261 13.7073 2.7347 13.0199L3.94466 9.27479C4.04398 8.96736 3.93517 8.63058 3.67514 8.44058L0.507445 6.126C-0.0740028 5.70114 0.224823 4.77621 0.943531 4.77621H4.85902C5.18043 4.77621 5.4653 4.56807 5.56462 4.26064L6.77457 0.51557Z" fill="#92C43E"/>
<path id="Star 2" d="M27.7746 0.51557C27.9967 -0.171858 28.9637 -0.171856 29.1858 0.515572L30.3957 4.26064C30.495 4.56807 30.7799 4.77621 31.1013 4.77621H35.0168C35.7355 4.77621 36.0343 5.70114 35.4529 6.126L32.2852 8.44058C32.0252 8.63058 31.9164 8.96736 32.0157 9.27479L33.2256 13.0199C33.4477 13.7073 32.6654 14.2789 32.084 13.8541L28.9163 11.5395C28.6562 11.3495 28.3041 11.3495 28.0441 11.5395L24.8764 13.8541C24.2949 14.2789 23.5126 13.7073 23.7347 13.0199L24.9447 9.27479C25.044 8.96736 24.9352 8.63058 24.6751 8.44058L21.5074 6.126C20.926 5.70114 21.2248 4.77621 21.9435 4.77621H25.859C26.1804 4.77621 26.4653 4.56807 26.5646 4.26064L27.7746 0.51557Z" fill="#92C43E"/>
<path id="Star 3" d="M48.7746 0.51557C48.9967 -0.171858 49.9637 -0.171856 50.1858 0.515572L51.3957 4.26064C51.495 4.56807 51.7799 4.77621 52.1013 4.77621H56.0168C56.7355 4.77621 57.0343 5.70114 56.4529 6.126L53.2852 8.44058C53.0252 8.63058 52.9164 8.96736 53.0157 9.27479L54.2256 13.0199C54.4477 13.7073 53.6654 14.2789 53.084 13.8541L49.9163 11.5395C49.6562 11.3495 49.3041 11.3495 49.0441 11.5395L45.8764 13.8541C45.2949 14.2789 44.5126 13.7073 44.7347 13.0199L45.9447 9.27479C46.044 8.96736 45.9352 8.63058 45.6751 8.44058L42.5074 6.126C41.926 5.70114 42.2248 4.77621 42.9435 4.77621H46.859C47.1804 4.77621 47.4653 4.56807 47.5646 4.26064L48.7746 0.51557Z" fill="#92C43E"/>
<path id="Star 4" d="M69.7746 0.51557C69.9967 -0.171858 70.9637 -0.171856 71.1858 0.515572L72.3957 4.26064C72.495 4.56807 72.7799 4.77621 73.1013 4.77621H77.0168C77.7355 4.77621 78.0343 5.70114 77.4529 6.126L74.2852 8.44058C74.0252 8.63058 73.9164 8.96736 74.0157 9.27479L75.2256 13.0199C75.4477 13.7073 74.6654 14.2789 74.084 13.8541L70.9163 11.5395C70.6562 11.3495 70.3041 11.3495 70.0441 11.5395L66.8764 13.8541C66.2949 14.2789 65.5126 13.7073 65.7347 13.0199L66.9447 9.27479C67.044 8.96736 66.9352 8.63058 66.6751 8.44058L63.5074 6.126C62.926 5.70114 63.2248 4.77621 63.9435 4.77621H67.859C68.1804 4.77621 68.4653 4.56807 68.5646 4.26064L69.7746 0.51557Z" fill="#92C43E"/>
<path id="Star 5" d="M90.7741 0.51557C90.9962 -0.171858 91.9632 -0.171856 92.1853 0.515572L93.3952 4.26064C93.4946 4.56807 93.7794 4.77621 94.1008 4.77621H98.0163C98.735 4.77621 99.0339 5.70114 98.4524 6.126L95.2847 8.44058C95.0247 8.63058 94.9159 8.96736 95.0152 9.27479L96.2252 13.0199C96.4472 13.7073 95.6649 14.2789 95.0835 13.8541L91.9158 11.5395C91.6557 11.3495 91.3036 11.3495 91.0436 11.5395L87.8759 13.8541C87.2945 14.2789 86.5121 13.7073 86.7342 13.0199L87.9442 9.27479C88.0435 8.96736 87.9347 8.63058 87.6747 8.44058L84.507 6.126C83.9255 5.70114 84.2243 4.77621 84.943 4.77621H88.8585C89.1799 4.77621 89.4648 4.56807 89.5641 4.26064L90.7741 0.51557Z" fill="#D1E5B0"/>
</g>
</svg>
