<svg width="20" height="12" viewBox="0 0 20 12" fill="none" xmlns="http://www.w3.org/2000/svg">
<path d="M19.1667 10H0.833333C0.61232 10 0.400358 10.0878 0.244078 10.2441C0.0877975 10.4004 0 10.6123 0 10.8333C0 11.0543 0.0877975 11.2663 0.244078 11.4226C0.400358 11.5789 0.61232 11.6667 0.833333 11.6667H19.1667C19.3877 11.6667 19.5996 11.5789 19.7559 11.4226C19.9122 11.2663 20 11.0543 20 10.8333C20 10.6123 19.9122 10.4004 19.7559 10.2441C19.5996 10.0878 19.3877 10 19.1667 10Z" fill="#92C43E"/>
<path d="M19.1667 5H0.833333C0.61232 5 0.400358 5.0878 0.244078 5.24408C0.0877975 5.40036 0 5.61232 0 5.83333C0 6.05435 0.0877975 6.26631 0.244078 6.42259C0.400358 6.57887 0.61232 6.66667 0.833333 6.66667H19.1667C19.3877 6.66667 19.5996 6.57887 19.7559 6.42259C19.9122 6.26631 20 6.05435 20 5.83333C20 5.61232 19.9122 5.40036 19.7559 5.24408C19.5996 5.0878 19.3877 5 19.1667 5Z" fill="#92C43E"/>
<path d="M0.833333 1.66667H19.1667C19.3877 1.66667 19.5996 1.57887 19.7559 1.42259C19.9122 1.26631 20 1.05435 20 0.833333C20 0.61232 19.9122 0.400358 19.7559 0.244078C19.5996 0.0877975 19.3877 0 19.1667 0H0.833333C0.61232 0 0.400358 0.0877975 0.244078 0.244078C0.0877975 0.400358 0 0.61232 0 0.833333C0 1.05435 0.0877975 1.26631 0.244078 1.42259C0.400358 1.57887 0.61232 1.66667 0.833333 1.66667Z" fill="#92C43E"/>
</svg>
