<svg width="51" height="51" viewBox="0 0 51 51" fill="none" xmlns="http://www.w3.org/2000/svg">
<rect width="51" height="51" rx="7" fill="#F4F9EC"/>
<path d="M24.9998 29.1538C27.8037 29.1538 30.0767 26.8808 30.0767 24.0769C30.0767 21.273 27.8037 19 24.9998 19C22.1959 19 19.9229 21.273 19.9229 24.0769C19.9229 26.8808 22.1959 29.1538 24.9998 29.1538Z" fill="#92C43E"/>
<path d="M25 13C22.6266 13 20.3066 13.7038 18.3332 15.0224C16.3598 16.3409 14.8217 18.2151 13.9135 20.4078C13.0052 22.6005 12.7676 25.0133 13.2306 27.3411C13.6936 29.6689 14.8365 31.807 16.5147 33.4853C18.193 35.1635 20.3311 36.3064 22.6589 36.7694C24.9867 37.2324 27.3995 36.9948 29.5922 36.0865C31.7849 35.1783 33.6591 33.6402 34.9776 31.6668C36.2962 29.6934 37 27.3734 37 25C36.9964 21.8185 35.731 18.7684 33.4813 16.5187C31.2316 14.269 28.1815 13.0036 25 13ZM32.5875 31.7396C31.8465 30.6661 30.8855 29.7624 29.7685 29.0887C28.484 30.3155 26.7762 31 25 31C23.2238 31 21.516 30.3155 20.2315 29.0887C19.1145 29.7624 18.1535 30.6661 17.4125 31.7396C16.1116 30.2768 15.2612 28.469 14.9639 26.534C14.6666 24.5991 14.935 22.6194 15.7367 20.8335C16.5385 19.0475 17.8394 17.5314 19.4829 16.4677C21.1264 15.404 23.0423 14.8381 25 14.8381C26.9577 14.8381 28.8736 15.404 30.5171 16.4677C32.1605 17.5314 33.4615 19.0475 34.2632 20.8335C35.065 22.6194 35.3334 24.5991 35.0361 26.534C34.7388 28.469 33.8884 30.2768 32.5875 31.7396Z" fill="#92C43E"/>
</svg>
