<svg width="20" height="20" viewBox="0 0 20 20" fill="none" xmlns="http://www.w3.org/2000/svg">
<g id="MagnifyingGlass">
<path id="Vector" d="M19.5294 19.5304C19.3888 19.6711 19.198 19.7501 18.9991 19.7501C18.8001 19.7501 18.6094 19.6711 18.4687 19.5304L14.4166 15.4782C12.7122 16.9091 10.5213 17.6269 8.30063 17.4817C6.08 17.3366 4.00111 16.3398 2.49749 14.6993C0.993874 13.0587 0.181607 10.9011 0.230078 8.67621C0.27855 6.45137 1.18402 4.33112 2.75766 2.75762C4.3313 1.18411 6.45163 0.278829 8.67647 0.23055C10.9013 0.182271 13.0589 0.994725 14.6993 2.49849C16.3398 4.00225 17.3363 6.08122 17.4813 8.30186C17.6262 10.5225 16.9083 12.7134 15.4773 14.4176L19.5294 18.4698C19.6701 18.6104 19.7491 18.8012 19.7491 19.0001C19.7491 19.199 19.6701 19.3897 19.5294 19.5304ZM8.87461 16C10.2838 16 11.6613 15.5821 12.833 14.7992C14.0048 14.0163 14.918 12.9035 15.4573 11.6016C15.9965 10.2997 16.1376 8.86708 15.8627 7.48497C15.5878 6.10285 14.9092 4.8333 13.9127 3.83685C12.9163 2.8404 11.6467 2.16181 10.2646 1.88689C8.88251 1.61197 7.44991 1.75307 6.14799 2.29234C4.84607 2.83162 3.73329 3.74485 2.95039 4.91655C2.16748 6.08825 1.74961 7.46579 1.74961 8.87498C1.75175 10.764 2.5031 12.575 3.83884 13.9108C5.17457 15.2465 6.9856 15.9978 8.87461 16Z" fill="#A5A7A5"/>
</g>
</svg>
